# xmcd
#
# Track frame offsets:
# 150
# 23665
# 42656
# 64940
# 81888
# 102599
# 118900
# 134764
# 157421
# 178790
# 196204
# 214049
# 231300
#
# Disc length: 3284 seconds
#
#
# Revision: 1
# Processed by: cddbd v1.5.1PL2 Copyright (c) Steve Scherf et al.
# Submitted via: FreeRIP 2.10 
#
DISCID=ca0cd20d
DTITLE=Deutschland sucht den Superstar - Love Songs
DYEAR=2006
DGENRE=Pop
TTITLE0=Tobias Regner - Jessie
TTITLE1=Vanessa Jean Dedmon - Hero
TTITLE2=Nevio Passaro - Se Bastasse Una Canzone
TTITLE3=Carolina Escolano - The First Cut Is The Deepest
TTITLE4=Mike Leon Grosch - Love's Divine
TTITLE5=Lena Hanenberg - Eternal Flame
TTITLE6=Daniel Muñoz - Now And Forever
TTITLE7=Dascha Semcov - Nothing Compares 2 U
TTITLE8=Stephan Darnstaedt - I Believe I Can Fly
TTITLE9=Anna-Maria Zimmermann - Wish You Were Here
TTITLE10=DSDS Boys - Back For Good
TTITLE11=DSDS Girls - 2 Become 1
TTITLE12=DSDS Alle - 2 Become 1-Back For Good
EXTD=
EXTT0=
EXTT1=
EXTT2=
EXTT3=
EXTT4=
EXTT5=
EXTT6=
EXTT7=
EXTT8=
EXTT9=
EXTT10=
EXTT11=
EXTT12=
PLAYORDER=
